<svg id="visual" viewBox="0 0 900 200" width="900" height="200" xmlns="http://www.w3.org/2000/svg" xmlns:xlink="http://www.w3.org/1999/xlink" version="1.1"><rect x="0" y="0" width="900" height="200" fill="#131313"></rect><path d="M0 70L60 40L120 56L180 45L240 72L300 34L360 42L420 71L480 88L540 45L600 84L660 94L720 90L780 83L840 68L900 46L900 201L840 201L780 201L720 201L660 201L600 201L540 201L480 201L420 201L360 201L300 201L240 201L180 201L120 201L60 201L0 201Z" fill="#131313"></path><path d="M0 116L60 73L120 81L180 114L240 79L300 94L360 101L420 118L480 73L540 101L600 68L660 100L720 63L780 95L840 71L900 113L900 201L840 201L780 201L720 201L660 201L600 201L540 201L480 201L420 201L360 201L300 201L240 201L180 201L120 201L60 201L0 201Z" fill="#1b1b1b"></path><path d="M0 95L60 101L120 115L180 127L240 91L300 133L360 107L420 128L480 136L540 95L600 139L660 112L720 121L780 117L840 109L900 126L900 201L840 201L780 201L720 201L660 201L600 201L540 201L480 201L420 201L360 201L300 201L240 201L180 201L120 201L60 201L0 201Z" fill="#232323"></path><path d="M0 123L60 138L120 129L180 152L240 124L300 126L360 146L420 153L480 137L540 151L600 135L660 141L720 125L780 134L840 161L900 158L900 201L840 201L780 201L720 201L660 201L600 201L540 201L480 201L420 201L360 201L300 201L240 201L180 201L120 201L60 201L0 201Z" fill="#2b2b2b"></path><path d="M0 161L60 176L120 175L180 160L240 176L300 163L360 173L420 181L480 152L540 150L600 152L660 151L720 171L780 154L840 164L900 164L900 201L840 201L780 201L720 201L660 201L600 201L540 201L480 201L420 201L360 201L300 201L240 201L180 201L120 201L60 201L0 201Z" fill="#333333"></path></svg>