<svg id="visual" viewBox="0 0 900 200" width="900" height="200" xmlns="http://www.w3.org/2000/svg" xmlns:xlink="http://www.w3.org/1999/xlink" version="1.1"><rect x="0" y="0" width="900" height="200" fill="#131313"></rect><path d="M0 128L60 164L120 120L180 152L240 150L300 132L360 137L420 112L480 132L540 113L600 139L660 121L720 104L780 120L840 142L900 164L900 0L840 0L780 0L720 0L660 0L600 0L540 0L480 0L420 0L360 0L300 0L240 0L180 0L120 0L60 0L0 0Z" fill="#131313"></path><path d="M0 123L60 98L120 120L180 117L240 90L300 130L360 103L420 134L480 103L540 103L600 80L660 124L720 109L780 111L840 120L900 86L900 0L840 0L780 0L720 0L660 0L600 0L540 0L480 0L420 0L360 0L300 0L240 0L180 0L120 0L60 0L0 0Z" fill="#1b1b1b"></path><path d="M0 67L60 88L120 75L180 60L240 82L300 77L360 99L420 74L480 87L540 94L600 64L660 88L720 64L780 91L840 99L900 60L900 0L840 0L780 0L720 0L660 0L600 0L540 0L480 0L420 0L360 0L300 0L240 0L180 0L120 0L60 0L0 0Z" fill="#232323"></path><path d="M0 61L60 45L120 71L180 50L240 42L300 69L360 38L420 75L480 64L540 75L600 75L660 64L720 37L780 71L840 70L900 64L900 0L840 0L780 0L720 0L660 0L600 0L540 0L480 0L420 0L360 0L300 0L240 0L180 0L120 0L60 0L0 0Z" fill="#2b2b2b"></path><path d="M0 42L60 38L120 18L180 29L240 17L300 37L360 43L420 19L480 43L540 21L600 48L660 39L720 48L780 34L840 37L900 43L900 0L840 0L780 0L720 0L660 0L600 0L540 0L480 0L420 0L360 0L300 0L240 0L180 0L120 0L60 0L0 0Z" fill="#333333"></path></svg>