<svg id="visual" viewBox="0 0 900 200" width="900" height="200" xmlns="http://www.w3.org/2000/svg" xmlns:xlink="http://www.w3.org/1999/xlink" version="1.1"><path d="M0 135L150 135L150 149L300 149L300 143L450 143L450 137L600 137L600 139L750 139L750 136L900 136L900 133L900 0L900 0L750 0L750 0L600 0L600 0L450 0L450 0L300 0L300 0L150 0L150 0L0 0Z" fill="#303542"></path><path d="M0 110L150 110L150 121L300 121L300 116L450 116L450 109L600 109L600 115L750 115L750 115L900 115L900 105L900 0L900 0L750 0L750 0L600 0L600 0L450 0L450 0L300 0L300 0L150 0L150 0L0 0Z" fill="#31343e"></path><path d="M0 88L150 88L150 84L300 84L300 91L450 91L450 90L600 90L600 92L750 92L750 82L900 82L900 84L900 0L900 0L750 0L750 0L600 0L600 0L450 0L450 0L300 0L300 0L150 0L150 0L0 0Z" fill="#32343a"></path><path d="M0 61L150 61L150 53L300 53L300 54L450 54L450 61L600 61L600 61L750 61L750 65L900 65L900 65L900 0L900 0L750 0L750 0L600 0L600 0L450 0L450 0L300 0L300 0L150 0L150 0L0 0Z" fill="#333336"></path><path d="M0 26L150 26L150 38L300 38L300 39L450 39L450 34L600 34L600 34L750 34L750 35L900 35L900 38L900 0L900 0L750 0L750 0L600 0L600 0L450 0L450 0L300 0L300 0L150 0L150 0L0 0Z" fill="#333333"></path></svg>